<?xml version="1.0" encoding="UTF-8"?>
<svg id="Calque_2" data-name="Calque 2" xmlns="http://www.w3.org/2000/svg" viewBox="0 0 156 156">
  <defs>
    <style>
      .cls-1 {
        fill: #ef793a;
      }

      .cls-2 {
        fill: none;
        stroke: #ef793a;
        stroke-miterlimit: 10;
        stroke-width: 10px;
      }
    </style>
  </defs>
  <g id="Calque_1-2" data-name="Calque 1">
    <circle class="cls-2" cx="78" cy="78" r="73"/>
    <path class="cls-1" d="M70.5,47.14V125.76c0,3.92,3.45,7.68,7.5,7.5s7.5-3.3,7.5-7.5V47.14c0-3.92-3.45-7.68-7.5-7.5s-7.5,3.3-7.5,7.5h0Z"/>
    <path class="cls-1" d="M45.42,78.9c4.28-4.58,8.55-9.17,12.83-13.75,6.79-7.27,13.57-14.54,20.36-21.81,1.57-1.68,3.13-3.35,4.7-5.03,2.68-2.87,3.06-7.8,0-10.61s-7.75-3.06-10.61,0c-4.28,4.58-8.55,9.17-12.83,13.75-6.79,7.27-13.57,14.54-20.36,21.81-1.57,1.68-3.13,3.35-4.7,5.03-2.68,2.87-3.06,7.8,0,10.61s7.75,3.06,10.61,0h0Z"/>
    <path class="cls-1" d="M122.95,68.99c-4.38-4.72-8.76-9.44-13.14-14.15-7.02-7.55-14.03-15.11-21.05-22.66-1.6-1.73-3.21-3.45-4.81-5.18-2.68-2.88-7.94-2.91-10.61,0-2.83,3.09-2.86,7.53,0,10.61,4.38,4.72,8.76,9.44,13.14,14.15,7.02,7.55,14.03,15.11,21.05,22.66,1.6,1.73,3.21,3.45,4.81,5.18,2.68,2.88,7.94,2.91,10.61,0,2.83-3.09,2.86-7.53,0-10.61h0Z"/>
  </g>
</svg>